<?xml version="1.0" standalone="no"?>
<!DOCTYPE svg PUBLIC "-//W3C//DTD SVG 20010904//EN"
 "http://www.w3.org/TR/2001/REC-SVG-20010904/DTD/svg10.dtd">
<svg version="1.0" xmlns="http://www.w3.org/2000/svg"
 width="260.000000pt" height="260.000000pt" viewBox="0 0 260.000000 260.000000"
 preserveAspectRatio="xMidYMid meet">
<metadata>
Created by potrace 1.14, written by Peter Selinger 2001-2017
</metadata>
<g transform="translate(0.000000,260.000000) scale(0.100000,-0.100000)"
fill="#000000" stroke="none">
<path d="M0 1300 l0 -1300 1300 0 1300 0 0 1300 0 1300 -1300 0 -1300 0 0
-1300z m1450 969 c340 -54 629 -319 716 -656 22 -82 27 -129 31 -285 l6 -187
28 -12 c61 -25 119 -115 119 -186 0 -12 -22 -111 -50 -220 -36 -146 -56 -208
-77 -237 -37 -52 -102 -86 -164 -86 -38 0 -51 -4 -59 -21 -29 -53 -144 -78
-209 -44 -39 19 -78 68 -86 106 -9 41 168 756 199 801 11 17 38 40 60 51 l39
20 -6 106 c-9 187 -78 344 -207 471 -250 245 -650 268 -919 52 -169 -136 -271
-347 -271 -561 0 -70 0 -71 33 -85 69 -28 76 -46 176 -437 100 -389 103 -419
63 -477 -30 -41 -79 -62 -147 -62 -54 0 -60 3 -97 40 -33 33 -47 40 -79 40
-72 0 -151 48 -184 110 -25 48 -105 384 -105 441 0 68 38 134 96 169 22 13 41
25 44 27 2 2 7 95 11 206 8 224 21 291 83 415 108 219 255 356 486 453 124 52
320 72 470 48z"/>
<path d="M1121 2205 c-164 -37 -302 -116 -420 -240 -157 -166 -224 -327 -238
-577 -6 -107 -5 -111 13 -103 10 4 29 10 41 12 20 5 22 13 28 111 9 132 33
228 79 319 120 239 359 399 623 419 267 20 531 -108 678 -328 85 -125 123
-243 132 -410 5 -97 8 -107 27 -111 12 -2 29 -8 39 -12 15 -6 17 1 17 76 0
387 -236 716 -595 829 -91 29 -326 37 -424 15z"/>
<path d="M508 1235 c-15 -8 -31 -30 -38 -49 -10 -31 -2 -73 80 -398 84 -332
94 -365 121 -391 49 -46 138 -26 164 37 14 33 11 49 -66 353 -107 425 -105
418 -135 442 -31 25 -87 27 -126 6z"/>
<path d="M1967 1229 c-23 -21 -37 -66 -117 -380 -49 -195 -90 -367 -90 -382 0
-69 103 -118 166 -79 29 19 33 29 122 383 51 200 92 376 92 391 0 46 -39 80
-96 85 -43 4 -54 2 -77 -18z"/>
<path d="M2115 782 c-43 -169 -81 -313 -83 -321 -4 -11 3 -12 34 -7 53 10 91
32 111 62 22 34 113 377 113 427 0 42 -11 70 -44 105 -51 57 -47 66 -131 -266z"/>
<path d="M361 1052 c-16 -16 -35 -47 -42 -70 -11 -38 -8 -56 39 -244 50 -196
53 -204 90 -239 34 -32 105 -59 118 -46 9 9 -151 621 -163 625 -7 2 -26 -9
-42 -26z"/>
</g>
</svg>
